<?xml version="1.0" encoding="UTF-8"?>
<!DOCTYPE svg PUBLIC "-//W3C//DTD SVG 1.1//EN" "http://www.w3.org/Graphics/SVG/1.1/DTD/svg11.dtd">
<svg version="1.2" viewBox="8393 2493 3691 6593" preserveAspectRatio="xMidYMid" fill-rule="evenodd" stroke-width="28.222" stroke-linejoin="round" xmlns="http://www.w3.org/2000/svg" xmlns:ooo="http://xml.openoffice.org/svg/export" xmlns:xlink="http://www.w3.org/1999/xlink" xmlns:presentation="http://sun.com/xmlns/staroffice/presentation" xmlns:smil="http://www.w3.org/2001/SMIL20/" xmlns:anim="urn:oasis:names:tc:opendocument:xmlns:animation:1.0" xmlns:svg="urn:oasis:names:tc:opendocument:xmlns:svg-compatible:1.0" xml:space="preserve">
 <defs class="EmbeddedBulletChars">
  <g id="bullet-char-template-57356" transform="scale(0.00048828125,-0.00048828125)">
   <path d="M 580,1141 L 1163,571 580,0 -4,571 580,1141 Z"/>
  </g>
  <g id="bullet-char-template-57354" transform="scale(0.00048828125,-0.00048828125)">
   <path d="M 8,1128 L 1137,1128 1137,0 8,0 8,1128 Z"/>
  </g>
  <g id="bullet-char-template-10146" transform="scale(0.00048828125,-0.00048828125)">
   <path d="M 174,0 L 602,739 174,1481 1456,739 174,0 Z M 1358,739 L 309,1346 659,739 1358,739 Z"/>
  </g>
  <g id="bullet-char-template-10132" transform="scale(0.00048828125,-0.00048828125)">
   <path d="M 2015,739 L 1276,0 717,0 1260,543 174,543 174,936 1260,936 717,1481 1274,1481 2015,739 Z"/>
  </g>
  <g id="bullet-char-template-10007" transform="scale(0.00048828125,-0.00048828125)">
   <path d="M 0,-2 C -7,14 -16,27 -25,37 L 356,567 C 262,823 215,952 215,954 215,979 228,992 255,992 264,992 276,990 289,987 310,991 331,999 354,1012 L 381,999 492,748 772,1049 836,1024 860,1049 C 881,1039 901,1025 922,1006 886,937 835,863 770,784 769,783 710,716 594,584 L 774,223 C 774,196 753,168 711,139 L 727,119 C 717,90 699,76 672,76 641,76 570,178 457,381 L 164,-76 C 142,-110 111,-127 72,-127 30,-127 9,-110 8,-76 1,-67 -2,-52 -2,-32 -2,-23 -1,-13 0,-2 Z"/>
  </g>
  <g id="bullet-char-template-10004" transform="scale(0.00048828125,-0.00048828125)">
   <path d="M 285,-33 C 182,-33 111,30 74,156 52,228 41,333 41,471 41,549 55,616 82,672 116,743 169,778 240,778 293,778 328,747 346,684 L 369,508 C 377,444 397,411 428,410 L 1163,1116 C 1174,1127 1196,1133 1229,1133 1271,1133 1292,1118 1292,1087 L 1292,965 C 1292,929 1282,901 1262,881 L 442,47 C 390,-6 338,-33 285,-33 Z"/>
  </g>
  <g id="bullet-char-template-9679" transform="scale(0.00048828125,-0.00048828125)">
   <path d="M 813,0 C 632,0 489,54 383,161 276,268 223,411 223,592 223,773 276,916 383,1023 489,1130 632,1184 813,1184 992,1184 1136,1130 1245,1023 1353,916 1407,772 1407,592 1407,412 1353,268 1245,161 1136,54 992,0 813,0 Z"/>
  </g>
  <g id="bullet-char-template-8226" transform="scale(0.00048828125,-0.00048828125)">
   <path d="M 346,457 C 273,457 209,483 155,535 101,586 74,649 74,723 74,796 101,859 155,911 209,963 273,989 346,989 419,989 480,963 531,910 582,859 608,796 608,723 608,648 583,586 532,535 482,483 420,457 346,457 Z"/>
  </g>
  <g id="bullet-char-template-8211" transform="scale(0.00048828125,-0.00048828125)">
   <path d="M -4,459 L 1135,459 1135,606 -4,606 -4,459 Z"/>
  </g>
  <g id="bullet-char-template-61548" transform="scale(0.00048828125,-0.00048828125)">
   <path d="M 173,740 C 173,903 231,1043 346,1159 462,1274 601,1332 765,1332 928,1332 1067,1274 1183,1159 1299,1043 1357,903 1357,740 1357,577 1299,437 1183,322 1067,206 928,148 765,148 601,148 462,206 346,322 231,437 173,577 173,740 Z"/>
  </g>
 </defs>
 <g ooo:name="page1" class="Page">
  <g class="com.sun.star.drawing.CustomShape">
   <g id="id3">
    <rect class="BoundingBox" stroke="none" fill="none" x="8393" y="3246" width="3691" height="5840"/>
    <path fill="rgb(255,255,255)" stroke="none" d="M 8499,8400 L 8499,8399 C 8499,8501 8526,8601 8577,8689 8628,8777 8701,8850 8789,8901 8877,8952 8977,8979 9079,8979 L 11397,8979 11397,8979 C 11499,8979 11599,8952 11687,8901 11775,8850 11848,8777 11899,8689 11950,8601 11977,8501 11977,8399 L 11976,3932 11977,3932 C 11977,3830 11950,3730 11899,3642 11848,3554 11775,3481 11687,3430 11599,3379 11499,3352 11397,3352 L 9078,3352 9079,3352 9079,3352 C 8977,3352 8877,3379 8789,3430 8701,3481 8628,3554 8577,3642 8526,3730 8499,3830 8499,3932 L 8499,8400 Z"/>
    <path fill="none" stroke="rgb(255,255,255)" stroke-width="212" stroke-linejoin="round" d="M 8499,8400 L 8499,8399 C 8499,8501 8526,8601 8577,8689 8628,8777 8701,8850 8789,8901 8877,8952 8977,8979 9079,8979 L 11397,8979 11397,8979 C 11499,8979 11599,8952 11687,8901 11775,8850 11848,8777 11899,8689 11950,8601 11977,8501 11977,8399 L 11976,3932 11977,3932 C 11977,3830 11950,3730 11899,3642 11848,3554 11775,3481 11687,3430 11599,3379 11499,3352 11397,3352 L 9078,3352 9079,3352 9079,3352 C 8977,3352 8877,3379 8789,3430 8701,3481 8628,3554 8577,3642 8526,3730 8499,3830 8499,3932 L 8499,8400 Z"/>
   </g>
  </g>
  <g class="com.sun.star.drawing.CustomShape">
   <g id="id4">
    <rect class="BoundingBox" stroke="none" fill="none" x="8889" y="4853" width="2699" height="3826"/>
    <path fill="rgb(129,212,26)" stroke="none" d="M 8996,8146 L 8996,8146 C 8996,8219 9015,8291 9051,8354 9088,8417 9140,8469 9203,8506 9266,8543 9337,8562 9410,8563 L 11066,8571 11067,8571 C 11140,8572 11211,8553 11274,8517 11337,8481 11389,8429 11426,8366 11462,8303 11481,8232 11481,8159 L 11481,5386 11481,5385 C 11481,5312 11462,5240 11426,5177 11389,5114 11337,5062 11274,5025 11211,4988 11140,4969 11067,4968 L 9410,4960 9410,4960 9410,4960 C 9337,4959 9266,4978 9203,5014 9140,5050 9088,5102 9051,5165 9015,5228 8996,5299 8996,5372 L 8996,8146 Z"/>
    <path fill="none" stroke="rgb(129,212,26)" stroke-width="212" stroke-linejoin="round" d="M 8996,8146 L 8996,8146 C 8996,8219 9015,8291 9051,8354 9088,8417 9140,8469 9203,8506 9266,8543 9337,8562 9410,8563 L 11066,8571 11067,8571 C 11140,8572 11211,8553 11274,8517 11337,8481 11389,8429 11426,8366 11462,8303 11481,8232 11481,8159 L 11481,5386 11481,5385 C 11481,5312 11462,5240 11426,5177 11389,5114 11337,5062 11274,5025 11211,4988 11140,4969 11067,4968 L 9410,4960 9410,4960 9410,4960 C 9337,4959 9266,4978 9203,5014 9140,5050 9088,5102 9051,5165 9015,5228 8996,5299 8996,5372 L 8996,8146 Z"/>
   </g>
  </g>
  <g class="com.sun.star.drawing.CustomShape">
   <g id="id5">
    <rect class="BoundingBox" stroke="none" fill="none" x="9412" y="2493" width="1692" height="840"/>
    <path fill="rgb(255,255,255)" stroke="none" d="M 9519,3122 L 9519,3122 C 9519,3140 9524,3158 9533,3174 9542,3190 9555,3203 9571,3212 9587,3221 9605,3226 9623,3226 L 10892,3226 10892,3226 C 10911,3226 10929,3221 10945,3212 10961,3203 10974,3190 10983,3174 10992,3158 10997,3140 10997,3122 L 10997,2704 10997,2704 C 10997,2685 10992,2667 10983,2651 10974,2635 10961,2622 10945,2613 10929,2604 10911,2599 10892,2599 L 9623,2599 9623,2599 9623,2599 C 9605,2599 9587,2604 9571,2613 9555,2622 9542,2635 9533,2651 9524,2667 9519,2685 9519,2704 L 9519,3122 Z"/>
    <path fill="none" stroke="rgb(255,255,255)" stroke-width="212" stroke-linejoin="round" d="M 9519,3122 L 9519,3122 C 9519,3140 9524,3158 9533,3174 9542,3190 9555,3203 9571,3212 9587,3221 9605,3226 9623,3226 L 10892,3226 10892,3226 C 10911,3226 10929,3221 10945,3212 10961,3203 10974,3190 10983,3174 10992,3158 10997,3140 10997,3122 L 10997,2704 10997,2704 C 10997,2685 10992,2667 10983,2651 10974,2635 10961,2622 10945,2613 10929,2604 10911,2599 10892,2599 L 9623,2599 9623,2599 9623,2599 C 9605,2599 9587,2604 9571,2613 9555,2622 9542,2635 9533,2651 9524,2667 9519,2685 9519,2704 L 9519,3122 Z"/>
   </g>
  </g>
 </g>
</svg>