<?xml version="1.0" encoding="UTF-8"?>
<!DOCTYPE svg PUBLIC "-//W3C//DTD SVG 1.1//EN" "http://www.w3.org/Graphics/SVG/1.1/DTD/svg11.dtd">
<svg version="1.2" viewBox="20415 9517 3692 6590" preserveAspectRatio="xMidYMid" fill-rule="evenodd" stroke-width="28.222" stroke-linejoin="round" xmlns="http://www.w3.org/2000/svg" xmlns:ooo="http://xml.openoffice.org/svg/export" xmlns:xlink="http://www.w3.org/1999/xlink" xmlns:presentation="http://sun.com/xmlns/staroffice/presentation" xmlns:smil="http://www.w3.org/2001/SMIL20/" xmlns:anim="urn:oasis:names:tc:opendocument:xmlns:animation:1.0" xmlns:svg="urn:oasis:names:tc:opendocument:xmlns:svg-compatible:1.0" xml:space="preserve">
 <defs class="EmbeddedBulletChars">
  <g id="bullet-char-template-57356" transform="scale(0.00048828125,-0.00048828125)">
   <path d="M 580,1141 L 1163,571 580,0 -4,571 580,1141 Z"/>
  </g>
  <g id="bullet-char-template-57354" transform="scale(0.00048828125,-0.00048828125)">
   <path d="M 8,1128 L 1137,1128 1137,0 8,0 8,1128 Z"/>
  </g>
  <g id="bullet-char-template-10146" transform="scale(0.00048828125,-0.00048828125)">
   <path d="M 174,0 L 602,739 174,1481 1456,739 174,0 Z M 1358,739 L 309,1346 659,739 1358,739 Z"/>
  </g>
  <g id="bullet-char-template-10132" transform="scale(0.00048828125,-0.00048828125)">
   <path d="M 2015,739 L 1276,0 717,0 1260,543 174,543 174,936 1260,936 717,1481 1274,1481 2015,739 Z"/>
  </g>
  <g id="bullet-char-template-10007" transform="scale(0.00048828125,-0.00048828125)">
   <path d="M 0,-2 C -7,14 -16,27 -25,37 L 356,567 C 262,823 215,952 215,954 215,979 228,992 255,992 264,992 276,990 289,987 310,991 331,999 354,1012 L 381,999 492,748 772,1049 836,1024 860,1049 C 881,1039 901,1025 922,1006 886,937 835,863 770,784 769,783 710,716 594,584 L 774,223 C 774,196 753,168 711,139 L 727,119 C 717,90 699,76 672,76 641,76 570,178 457,381 L 164,-76 C 142,-110 111,-127 72,-127 30,-127 9,-110 8,-76 1,-67 -2,-52 -2,-32 -2,-23 -1,-13 0,-2 Z"/>
  </g>
  <g id="bullet-char-template-10004" transform="scale(0.00048828125,-0.00048828125)">
   <path d="M 285,-33 C 182,-33 111,30 74,156 52,228 41,333 41,471 41,549 55,616 82,672 116,743 169,778 240,778 293,778 328,747 346,684 L 369,508 C 377,444 397,411 428,410 L 1163,1116 C 1174,1127 1196,1133 1229,1133 1271,1133 1292,1118 1292,1087 L 1292,965 C 1292,929 1282,901 1262,881 L 442,47 C 390,-6 338,-33 285,-33 Z"/>
  </g>
  <g id="bullet-char-template-9679" transform="scale(0.00048828125,-0.00048828125)">
   <path d="M 813,0 C 632,0 489,54 383,161 276,268 223,411 223,592 223,773 276,916 383,1023 489,1130 632,1184 813,1184 992,1184 1136,1130 1245,1023 1353,916 1407,772 1407,592 1407,412 1353,268 1245,161 1136,54 992,0 813,0 Z"/>
  </g>
  <g id="bullet-char-template-8226" transform="scale(0.00048828125,-0.00048828125)">
   <path d="M 346,457 C 273,457 209,483 155,535 101,586 74,649 74,723 74,796 101,859 155,911 209,963 273,989 346,989 419,989 480,963 531,910 582,859 608,796 608,723 608,648 583,586 532,535 482,483 420,457 346,457 Z"/>
  </g>
  <g id="bullet-char-template-8211" transform="scale(0.00048828125,-0.00048828125)">
   <path d="M -4,459 L 1135,459 1135,606 -4,606 -4,459 Z"/>
  </g>
  <g id="bullet-char-template-61548" transform="scale(0.00048828125,-0.00048828125)">
   <path d="M 173,740 C 173,903 231,1043 346,1159 462,1274 601,1332 765,1332 928,1332 1067,1274 1183,1159 1299,1043 1357,903 1357,740 1357,577 1299,437 1183,322 1067,206 928,148 765,148 601,148 462,206 346,322 231,437 173,577 173,740 Z"/>
  </g>
 </defs>
 <g ooo:name="page1" class="Page">
  <g class="com.sun.star.drawing.CustomShape">
   <g id="id3">
    <rect class="BoundingBox" stroke="none" fill="none" x="20415" y="10268" width="3692" height="5839"/>
    <path fill="rgb(255,255,255)" stroke="none" d="M 20522,15421 L 20522,15420 C 20522,15522 20549,15622 20600,15710 20651,15798 20724,15871 20812,15922 20900,15973 21000,16000 21102,16000 L 23420,16000 23420,16000 C 23522,16000 23622,15973 23710,15922 23798,15871 23871,15798 23922,15710 23973,15622 24000,15522 24000,15420 L 23999,10954 24000,10954 C 24000,10852 23973,10752 23922,10664 23871,10576 23798,10503 23710,10452 23622,10401 23522,10374 23420,10374 L 21101,10375 21102,10374 21102,10374 C 21000,10374 20900,10401 20812,10452 20724,10503 20651,10576 20600,10664 20549,10752 20522,10852 20522,10954 L 20522,15421 Z"/>
    <path fill="none" stroke="rgb(255,255,255)" stroke-width="212" stroke-linejoin="round" d="M 20522,15421 L 20522,15420 C 20522,15522 20549,15622 20600,15710 20651,15798 20724,15871 20812,15922 20900,15973 21000,16000 21102,16000 L 23420,16000 23420,16000 C 23522,16000 23622,15973 23710,15922 23798,15871 23871,15798 23922,15710 23973,15622 24000,15522 24000,15420 L 23999,10954 24000,10954 C 24000,10852 23973,10752 23922,10664 23871,10576 23798,10503 23710,10452 23622,10401 23522,10374 23420,10374 L 21101,10375 21102,10374 21102,10374 C 21000,10374 20900,10401 20812,10452 20724,10503 20651,10576 20600,10664 20549,10752 20522,10852 20522,10954 L 20522,15421 Z"/>
   </g>
  </g>
  <g class="com.sun.star.drawing.CustomShape">
   <g id="id4">
    <rect class="BoundingBox" stroke="none" fill="none" x="21436" y="9517" width="1691" height="840"/>
    <path fill="rgb(255,255,255)" stroke="none" d="M 21542,10146 L 21542,10146 C 21542,10164 21547,10182 21556,10198 21565,10214 21578,10227 21594,10236 21610,10245 21628,10250 21647,10250 L 22915,10250 22916,10250 C 22934,10250 22952,10245 22968,10236 22984,10227 22997,10214 23006,10198 23015,10182 23020,10164 23020,10146 L 23020,9728 23020,9728 C 23020,9709 23015,9691 23006,9675 22997,9659 22984,9646 22968,9637 22952,9628 22934,9623 22916,9623 L 21646,9623 21647,9623 21647,9623 C 21628,9623 21610,9628 21594,9637 21578,9646 21565,9659 21556,9675 21547,9691 21542,9709 21542,9728 L 21542,10146 Z"/>
    <path fill="none" stroke="rgb(255,255,255)" stroke-width="212" stroke-linejoin="round" d="M 21542,10146 L 21542,10146 C 21542,10164 21547,10182 21556,10198 21565,10214 21578,10227 21594,10236 21610,10245 21628,10250 21647,10250 L 22915,10250 22916,10250 C 22934,10250 22952,10245 22968,10236 22984,10227 22997,10214 23006,10198 23015,10182 23020,10164 23020,10146 L 23020,9728 23020,9728 C 23020,9709 23015,9691 23006,9675 22997,9659 22984,9646 22968,9637 22952,9628 22934,9623 22916,9623 L 21646,9623 21647,9623 21647,9623 C 21628,9623 21610,9628 21594,9637 21578,9646 21565,9659 21556,9675 21547,9691 21542,9709 21542,9728 L 21542,10146 Z"/>
   </g>
  </g>
 </g>
</svg>