<?xml version="1.0" encoding="UTF-8"?>
<!DOCTYPE svg PUBLIC "-//W3C//DTD SVG 1.1//EN" "http://www.w3.org/Graphics/SVG/1.1/DTD/svg11.dtd">
<svg version="1.2" viewBox="393 2493 3691 6590" preserveAspectRatio="xMidYMid" fill-rule="evenodd" stroke-width="28.222" stroke-linejoin="round" xmlns="http://www.w3.org/2000/svg" xmlns:ooo="http://xml.openoffice.org/svg/export" xmlns:xlink="http://www.w3.org/1999/xlink" xmlns:presentation="http://sun.com/xmlns/staroffice/presentation" xmlns:smil="http://www.w3.org/2001/SMIL20/" xmlns:anim="urn:oasis:names:tc:opendocument:xmlns:animation:1.0" xmlns:svg="urn:oasis:names:tc:opendocument:xmlns:svg-compatible:1.0" xml:space="preserve">
 <defs class="EmbeddedBulletChars">
  <g id="bullet-char-template-57356" transform="scale(0.00048828125,-0.00048828125)">
   <path d="M 580,1141 L 1163,571 580,0 -4,571 580,1141 Z"/>
  </g>
  <g id="bullet-char-template-57354" transform="scale(0.00048828125,-0.00048828125)">
   <path d="M 8,1128 L 1137,1128 1137,0 8,0 8,1128 Z"/>
  </g>
  <g id="bullet-char-template-10146" transform="scale(0.00048828125,-0.00048828125)">
   <path d="M 174,0 L 602,739 174,1481 1456,739 174,0 Z M 1358,739 L 309,1346 659,739 1358,739 Z"/>
  </g>
  <g id="bullet-char-template-10132" transform="scale(0.00048828125,-0.00048828125)">
   <path d="M 2015,739 L 1276,0 717,0 1260,543 174,543 174,936 1260,936 717,1481 1274,1481 2015,739 Z"/>
  </g>
  <g id="bullet-char-template-10007" transform="scale(0.00048828125,-0.00048828125)">
   <path d="M 0,-2 C -7,14 -16,27 -25,37 L 356,567 C 262,823 215,952 215,954 215,979 228,992 255,992 264,992 276,990 289,987 310,991 331,999 354,1012 L 381,999 492,748 772,1049 836,1024 860,1049 C 881,1039 901,1025 922,1006 886,937 835,863 770,784 769,783 710,716 594,584 L 774,223 C 774,196 753,168 711,139 L 727,119 C 717,90 699,76 672,76 641,76 570,178 457,381 L 164,-76 C 142,-110 111,-127 72,-127 30,-127 9,-110 8,-76 1,-67 -2,-52 -2,-32 -2,-23 -1,-13 0,-2 Z"/>
  </g>
  <g id="bullet-char-template-10004" transform="scale(0.00048828125,-0.00048828125)">
   <path d="M 285,-33 C 182,-33 111,30 74,156 52,228 41,333 41,471 41,549 55,616 82,672 116,743 169,778 240,778 293,778 328,747 346,684 L 369,508 C 377,444 397,411 428,410 L 1163,1116 C 1174,1127 1196,1133 1229,1133 1271,1133 1292,1118 1292,1087 L 1292,965 C 1292,929 1282,901 1262,881 L 442,47 C 390,-6 338,-33 285,-33 Z"/>
  </g>
  <g id="bullet-char-template-9679" transform="scale(0.00048828125,-0.00048828125)">
   <path d="M 813,0 C 632,0 489,54 383,161 276,268 223,411 223,592 223,773 276,916 383,1023 489,1130 632,1184 813,1184 992,1184 1136,1130 1245,1023 1353,916 1407,772 1407,592 1407,412 1353,268 1245,161 1136,54 992,0 813,0 Z"/>
  </g>
  <g id="bullet-char-template-8226" transform="scale(0.00048828125,-0.00048828125)">
   <path d="M 346,457 C 273,457 209,483 155,535 101,586 74,649 74,723 74,796 101,859 155,911 209,963 273,989 346,989 419,989 480,963 531,910 582,859 608,796 608,723 608,648 583,586 532,535 482,483 420,457 346,457 Z"/>
  </g>
  <g id="bullet-char-template-8211" transform="scale(0.00048828125,-0.00048828125)">
   <path d="M -4,459 L 1135,459 1135,606 -4,606 -4,459 Z"/>
  </g>
  <g id="bullet-char-template-61548" transform="scale(0.00048828125,-0.00048828125)">
   <path d="M 173,740 C 173,903 231,1043 346,1159 462,1274 601,1332 765,1332 928,1332 1067,1274 1183,1159 1299,1043 1357,903 1357,740 1357,577 1299,437 1183,322 1067,206 928,148 765,148 601,148 462,206 346,322 231,437 173,577 173,740 Z"/>
  </g>
 </defs>
 <g ooo:name="page1" class="Page">
  <g class="com.sun.star.drawing.CustomShape">
   <g id="id3">
    <rect class="BoundingBox" stroke="none" fill="none" x="393" y="3243" width="3691" height="5840"/>
    <path fill="rgb(255,255,255)" stroke="none" d="M 499,8397 L 499,8396 C 499,8498 526,8598 577,8686 628,8774 701,8847 789,8898 877,8949 977,8976 1079,8976 L 3397,8976 3397,8976 C 3499,8976 3599,8949 3687,8898 3775,8847 3848,8774 3899,8686 3950,8598 3977,8498 3977,8396 L 3976,3929 3977,3929 C 3977,3827 3950,3727 3899,3639 3848,3551 3775,3478 3687,3427 3599,3376 3499,3349 3397,3349 L 1078,3349 1079,3349 1079,3349 C 977,3349 877,3376 789,3427 701,3478 628,3551 577,3639 526,3727 499,3827 499,3929 L 499,8397 Z"/>
    <path fill="none" stroke="rgb(255,255,255)" stroke-width="212" stroke-linejoin="round" d="M 499,8397 L 499,8396 C 499,8498 526,8598 577,8686 628,8774 701,8847 789,8898 877,8949 977,8976 1079,8976 L 3397,8976 3397,8976 C 3499,8976 3599,8949 3687,8898 3775,8847 3848,8774 3899,8686 3950,8598 3977,8498 3977,8396 L 3976,3929 3977,3929 C 3977,3827 3950,3727 3899,3639 3848,3551 3775,3478 3687,3427 3599,3376 3499,3349 3397,3349 L 1078,3349 1079,3349 1079,3349 C 977,3349 877,3376 789,3427 701,3478 628,3551 577,3639 526,3727 499,3827 499,3929 L 499,8397 Z"/>
   </g>
  </g>
  <g class="com.sun.star.drawing.CustomShape">
   <g id="id4">
    <rect class="BoundingBox" stroke="none" fill="none" x="931" y="3648" width="2697" height="5033"/>
    <path fill="rgb(129,212,26)" stroke="none" d="M 1037,8146 L 1037,8146 C 1037,8219 1056,8291 1092,8354 1129,8417 1181,8469 1244,8506 1307,8543 1378,8562 1451,8563 L 3107,8573 3107,8573 C 3180,8574 3251,8555 3314,8519 3377,8483 3429,8431 3466,8368 3502,8306 3521,8234 3521,8162 L 3521,4182 3521,4182 C 3521,4109 3502,4037 3466,3974 3429,3911 3377,3859 3314,3822 3251,3785 3180,3766 3107,3765 L 1451,3755 1451,3755 1451,3755 C 1378,3754 1307,3773 1244,3809 1181,3845 1129,3897 1092,3960 1056,4022 1037,4094 1037,4166 L 1037,8146 Z"/>
    <path fill="none" stroke="rgb(129,212,26)" stroke-width="212" stroke-linejoin="round" d="M 1037,8146 L 1037,8146 C 1037,8219 1056,8291 1092,8354 1129,8417 1181,8469 1244,8506 1307,8543 1378,8562 1451,8563 L 3107,8573 3107,8573 C 3180,8574 3251,8555 3314,8519 3377,8483 3429,8431 3466,8368 3502,8306 3521,8234 3521,8162 L 3521,4182 3521,4182 C 3521,4109 3502,4037 3466,3974 3429,3911 3377,3859 3314,3822 3251,3785 3180,3766 3107,3765 L 1451,3755 1451,3755 1451,3755 C 1378,3754 1307,3773 1244,3809 1181,3845 1129,3897 1092,3960 1056,4022 1037,4094 1037,4166 L 1037,8146 Z"/>
   </g>
  </g>
  <g class="com.sun.star.drawing.CustomShape">
   <g id="id5">
    <rect class="BoundingBox" stroke="none" fill="none" x="1416" y="2493" width="1691" height="840"/>
    <path fill="rgb(255,255,255)" stroke="none" d="M 1522,3122 L 1522,3122 C 1522,3140 1527,3158 1536,3174 1545,3190 1558,3203 1574,3212 1590,3221 1608,3226 1627,3226 L 2895,3226 2896,3226 C 2914,3226 2932,3221 2948,3212 2964,3203 2977,3190 2986,3174 2995,3158 3000,3140 3000,3122 L 3000,2704 3000,2704 C 3000,2685 2995,2667 2986,2651 2977,2635 2964,2622 2948,2613 2932,2604 2914,2599 2896,2599 L 1626,2599 1627,2599 1627,2599 C 1608,2599 1590,2604 1574,2613 1558,2622 1545,2635 1536,2651 1527,2667 1522,2685 1522,2704 L 1522,3122 Z"/>
    <path fill="none" stroke="rgb(255,255,255)" stroke-width="212" stroke-linejoin="round" d="M 1522,3122 L 1522,3122 C 1522,3140 1527,3158 1536,3174 1545,3190 1558,3203 1574,3212 1590,3221 1608,3226 1627,3226 L 2895,3226 2896,3226 C 2914,3226 2932,3221 2948,3212 2964,3203 2977,3190 2986,3174 2995,3158 3000,3140 3000,3122 L 3000,2704 3000,2704 C 3000,2685 2995,2667 2986,2651 2977,2635 2964,2622 2948,2613 2932,2604 2914,2599 2896,2599 L 1626,2599 1627,2599 1627,2599 C 1608,2599 1590,2604 1574,2613 1558,2622 1545,2635 1536,2651 1527,2667 1522,2685 1522,2704 L 1522,3122 Z"/>
   </g>
  </g>
 </g>
</svg>