<?xml version="1.0" encoding="UTF-8"?>
<!DOCTYPE svg PUBLIC "-//W3C//DTD SVG 1.1//EN" "http://www.w3.org/Graphics/SVG/1.1/DTD/svg11.dtd">
<svg version="1.2" viewBox="12393 2493 3691 6592" preserveAspectRatio="xMidYMid" fill-rule="evenodd" stroke-width="28.222" stroke-linejoin="round" xmlns="http://www.w3.org/2000/svg" xmlns:ooo="http://xml.openoffice.org/svg/export" xmlns:xlink="http://www.w3.org/1999/xlink" xmlns:presentation="http://sun.com/xmlns/staroffice/presentation" xmlns:smil="http://www.w3.org/2001/SMIL20/" xmlns:anim="urn:oasis:names:tc:opendocument:xmlns:animation:1.0" xmlns:svg="urn:oasis:names:tc:opendocument:xmlns:svg-compatible:1.0" xml:space="preserve">
 <defs class="EmbeddedBulletChars">
  <g id="bullet-char-template-57356" transform="scale(0.00048828125,-0.00048828125)">
   <path d="M 580,1141 L 1163,571 580,0 -4,571 580,1141 Z"/>
  </g>
  <g id="bullet-char-template-57354" transform="scale(0.00048828125,-0.00048828125)">
   <path d="M 8,1128 L 1137,1128 1137,0 8,0 8,1128 Z"/>
  </g>
  <g id="bullet-char-template-10146" transform="scale(0.00048828125,-0.00048828125)">
   <path d="M 174,0 L 602,739 174,1481 1456,739 174,0 Z M 1358,739 L 309,1346 659,739 1358,739 Z"/>
  </g>
  <g id="bullet-char-template-10132" transform="scale(0.00048828125,-0.00048828125)">
   <path d="M 2015,739 L 1276,0 717,0 1260,543 174,543 174,936 1260,936 717,1481 1274,1481 2015,739 Z"/>
  </g>
  <g id="bullet-char-template-10007" transform="scale(0.00048828125,-0.00048828125)">
   <path d="M 0,-2 C -7,14 -16,27 -25,37 L 356,567 C 262,823 215,952 215,954 215,979 228,992 255,992 264,992 276,990 289,987 310,991 331,999 354,1012 L 381,999 492,748 772,1049 836,1024 860,1049 C 881,1039 901,1025 922,1006 886,937 835,863 770,784 769,783 710,716 594,584 L 774,223 C 774,196 753,168 711,139 L 727,119 C 717,90 699,76 672,76 641,76 570,178 457,381 L 164,-76 C 142,-110 111,-127 72,-127 30,-127 9,-110 8,-76 1,-67 -2,-52 -2,-32 -2,-23 -1,-13 0,-2 Z"/>
  </g>
  <g id="bullet-char-template-10004" transform="scale(0.00048828125,-0.00048828125)">
   <path d="M 285,-33 C 182,-33 111,30 74,156 52,228 41,333 41,471 41,549 55,616 82,672 116,743 169,778 240,778 293,778 328,747 346,684 L 369,508 C 377,444 397,411 428,410 L 1163,1116 C 1174,1127 1196,1133 1229,1133 1271,1133 1292,1118 1292,1087 L 1292,965 C 1292,929 1282,901 1262,881 L 442,47 C 390,-6 338,-33 285,-33 Z"/>
  </g>
  <g id="bullet-char-template-9679" transform="scale(0.00048828125,-0.00048828125)">
   <path d="M 813,0 C 632,0 489,54 383,161 276,268 223,411 223,592 223,773 276,916 383,1023 489,1130 632,1184 813,1184 992,1184 1136,1130 1245,1023 1353,916 1407,772 1407,592 1407,412 1353,268 1245,161 1136,54 992,0 813,0 Z"/>
  </g>
  <g id="bullet-char-template-8226" transform="scale(0.00048828125,-0.00048828125)">
   <path d="M 346,457 C 273,457 209,483 155,535 101,586 74,649 74,723 74,796 101,859 155,911 209,963 273,989 346,989 419,989 480,963 531,910 582,859 608,796 608,723 608,648 583,586 532,535 482,483 420,457 346,457 Z"/>
  </g>
  <g id="bullet-char-template-8211" transform="scale(0.00048828125,-0.00048828125)">
   <path d="M -4,459 L 1135,459 1135,606 -4,606 -4,459 Z"/>
  </g>
  <g id="bullet-char-template-61548" transform="scale(0.00048828125,-0.00048828125)">
   <path d="M 173,740 C 173,903 231,1043 346,1159 462,1274 601,1332 765,1332 928,1332 1067,1274 1183,1159 1299,1043 1357,903 1357,740 1357,577 1299,437 1183,322 1067,206 928,148 765,148 601,148 462,206 346,322 231,437 173,577 173,740 Z"/>
  </g>
 </defs>
 <g ooo:name="page1" class="Page">
  <g class="com.sun.star.drawing.CustomShape">
   <g id="id3">
    <rect class="BoundingBox" stroke="none" fill="none" x="12393" y="3245" width="3691" height="5840"/>
    <path fill="rgb(255,255,255)" stroke="none" d="M 12499,8399 L 12499,8398 C 12499,8500 12526,8600 12577,8688 12628,8776 12701,8849 12789,8900 12877,8951 12977,8978 13079,8978 L 15397,8978 15397,8978 C 15499,8978 15599,8951 15687,8900 15775,8849 15848,8776 15899,8688 15950,8600 15977,8500 15977,8398 L 15976,3931 15977,3931 C 15977,3829 15950,3729 15899,3641 15848,3553 15775,3480 15687,3429 15599,3378 15499,3351 15397,3351 L 13078,3351 13079,3351 13079,3351 C 12977,3351 12877,3378 12789,3429 12701,3480 12628,3553 12577,3641 12526,3729 12499,3829 12499,3931 L 12499,8399 Z"/>
    <path fill="none" stroke="rgb(255,255,255)" stroke-width="212" stroke-linejoin="round" d="M 12499,8399 L 12499,8398 C 12499,8500 12526,8600 12577,8688 12628,8776 12701,8849 12789,8900 12877,8951 12977,8978 13079,8978 L 15397,8978 15397,8978 C 15499,8978 15599,8951 15687,8900 15775,8849 15848,8776 15899,8688 15950,8600 15977,8500 15977,8398 L 15976,3931 15977,3931 C 15977,3829 15950,3729 15899,3641 15848,3553 15775,3480 15687,3429 15599,3378 15499,3351 15397,3351 L 13078,3351 13079,3351 13079,3351 C 12977,3351 12877,3378 12789,3429 12701,3480 12628,3553 12577,3641 12526,3729 12499,3829 12499,3931 L 12499,8399 Z"/>
   </g>
  </g>
  <g class="com.sun.star.drawing.CustomShape">
   <g id="id4">
    <rect class="BoundingBox" stroke="none" fill="none" x="12887" y="5457" width="2698" height="3225"/>
    <path fill="rgb(187,227,61)" stroke="none" d="M 12994,8153 L 12994,8152 C 12994,8225 13013,8296 13049,8359 13086,8422 13138,8475 13201,8511 13264,8548 13335,8567 13408,8568 L 15064,8574 15064,8574 C 15137,8575 15208,8556 15271,8520 15334,8484 15386,8432 15423,8369 15459,8306 15478,8235 15478,8162 L 15478,5986 15478,5986 C 15478,5913 15459,5842 15423,5779 15386,5716 15334,5663 15271,5627 15208,5590 15137,5571 15064,5570 L 13408,5564 13408,5564 13408,5564 C 13335,5563 13264,5582 13201,5618 13138,5654 13086,5706 13049,5769 13013,5832 12994,5903 12994,5976 L 12994,8153 Z"/>
    <path fill="none" stroke="rgb(187,227,61)" stroke-width="212" stroke-linejoin="round" d="M 12994,8153 L 12994,8152 C 12994,8225 13013,8296 13049,8359 13086,8422 13138,8475 13201,8511 13264,8548 13335,8567 13408,8568 L 15064,8574 15064,8574 C 15137,8575 15208,8556 15271,8520 15334,8484 15386,8432 15423,8369 15459,8306 15478,8235 15478,8162 L 15478,5986 15478,5986 C 15478,5913 15459,5842 15423,5779 15386,5716 15334,5663 15271,5627 15208,5590 15137,5571 15064,5570 L 13408,5564 13408,5564 13408,5564 C 13335,5563 13264,5582 13201,5618 13138,5654 13086,5706 13049,5769 13013,5832 12994,5903 12994,5976 L 12994,8153 Z"/>
   </g>
  </g>
  <g class="com.sun.star.drawing.CustomShape">
   <g id="id5">
    <rect class="BoundingBox" stroke="none" fill="none" x="13416" y="2493" width="1691" height="840"/>
    <path fill="rgb(255,255,255)" stroke="none" d="M 13522,3122 L 13522,3122 C 13522,3140 13527,3158 13536,3174 13545,3190 13558,3203 13574,3212 13590,3221 13608,3226 13626,3226 L 14895,3226 14895,3226 C 14914,3226 14932,3221 14948,3212 14964,3203 14977,3190 14986,3174 14995,3158 15000,3140 15000,3122 L 15000,2704 15000,2704 C 15000,2685 14995,2667 14986,2651 14977,2635 14964,2622 14948,2613 14932,2604 14914,2599 14895,2599 L 13626,2599 13626,2599 13626,2599 C 13608,2599 13590,2604 13574,2613 13558,2622 13545,2635 13536,2651 13527,2667 13522,2685 13522,2704 L 13522,3122 Z"/>
    <path fill="none" stroke="rgb(255,255,255)" stroke-width="212" stroke-linejoin="round" d="M 13522,3122 L 13522,3122 C 13522,3140 13527,3158 13536,3174 13545,3190 13558,3203 13574,3212 13590,3221 13608,3226 13626,3226 L 14895,3226 14895,3226 C 14914,3226 14932,3221 14948,3212 14964,3203 14977,3190 14986,3174 14995,3158 15000,3140 15000,3122 L 15000,2704 15000,2704 C 15000,2685 14995,2667 14986,2651 14977,2635 14964,2622 14948,2613 14932,2604 14914,2599 14895,2599 L 13626,2599 13626,2599 13626,2599 C 13608,2599 13590,2604 13574,2613 13558,2622 13545,2635 13536,2651 13527,2667 13522,2685 13522,2704 L 13522,3122 Z"/>
   </g>
  </g>
 </g>
</svg>