<?xml version="1.0" encoding="UTF-8"?>
<!DOCTYPE svg PUBLIC "-//W3C//DTD SVG 1.1//EN" "http://www.w3.org/Graphics/SVG/1.1/DTD/svg11.dtd">
<svg version="1.2" viewBox="28393 2493 3691 6590" preserveAspectRatio="xMidYMid" fill-rule="evenodd" stroke-width="28.222" stroke-linejoin="round" xmlns="http://www.w3.org/2000/svg" xmlns:ooo="http://xml.openoffice.org/svg/export" xmlns:xlink="http://www.w3.org/1999/xlink" xmlns:presentation="http://sun.com/xmlns/staroffice/presentation" xmlns:smil="http://www.w3.org/2001/SMIL20/" xmlns:anim="urn:oasis:names:tc:opendocument:xmlns:animation:1.0" xmlns:svg="urn:oasis:names:tc:opendocument:xmlns:svg-compatible:1.0" xml:space="preserve">
 <defs class="EmbeddedBulletChars">
  <g id="bullet-char-template-57356" transform="scale(0.00048828125,-0.00048828125)">
   <path d="M 580,1141 L 1163,571 580,0 -4,571 580,1141 Z"/>
  </g>
  <g id="bullet-char-template-57354" transform="scale(0.00048828125,-0.00048828125)">
   <path d="M 8,1128 L 1137,1128 1137,0 8,0 8,1128 Z"/>
  </g>
  <g id="bullet-char-template-10146" transform="scale(0.00048828125,-0.00048828125)">
   <path d="M 174,0 L 602,739 174,1481 1456,739 174,0 Z M 1358,739 L 309,1346 659,739 1358,739 Z"/>
  </g>
  <g id="bullet-char-template-10132" transform="scale(0.00048828125,-0.00048828125)">
   <path d="M 2015,739 L 1276,0 717,0 1260,543 174,543 174,936 1260,936 717,1481 1274,1481 2015,739 Z"/>
  </g>
  <g id="bullet-char-template-10007" transform="scale(0.00048828125,-0.00048828125)">
   <path d="M 0,-2 C -7,14 -16,27 -25,37 L 356,567 C 262,823 215,952 215,954 215,979 228,992 255,992 264,992 276,990 289,987 310,991 331,999 354,1012 L 381,999 492,748 772,1049 836,1024 860,1049 C 881,1039 901,1025 922,1006 886,937 835,863 770,784 769,783 710,716 594,584 L 774,223 C 774,196 753,168 711,139 L 727,119 C 717,90 699,76 672,76 641,76 570,178 457,381 L 164,-76 C 142,-110 111,-127 72,-127 30,-127 9,-110 8,-76 1,-67 -2,-52 -2,-32 -2,-23 -1,-13 0,-2 Z"/>
  </g>
  <g id="bullet-char-template-10004" transform="scale(0.00048828125,-0.00048828125)">
   <path d="M 285,-33 C 182,-33 111,30 74,156 52,228 41,333 41,471 41,549 55,616 82,672 116,743 169,778 240,778 293,778 328,747 346,684 L 369,508 C 377,444 397,411 428,410 L 1163,1116 C 1174,1127 1196,1133 1229,1133 1271,1133 1292,1118 1292,1087 L 1292,965 C 1292,929 1282,901 1262,881 L 442,47 C 390,-6 338,-33 285,-33 Z"/>
  </g>
  <g id="bullet-char-template-9679" transform="scale(0.00048828125,-0.00048828125)">
   <path d="M 813,0 C 632,0 489,54 383,161 276,268 223,411 223,592 223,773 276,916 383,1023 489,1130 632,1184 813,1184 992,1184 1136,1130 1245,1023 1353,916 1407,772 1407,592 1407,412 1353,268 1245,161 1136,54 992,0 813,0 Z"/>
  </g>
  <g id="bullet-char-template-8226" transform="scale(0.00048828125,-0.00048828125)">
   <path d="M 346,457 C 273,457 209,483 155,535 101,586 74,649 74,723 74,796 101,859 155,911 209,963 273,989 346,989 419,989 480,963 531,910 582,859 608,796 608,723 608,648 583,586 532,535 482,483 420,457 346,457 Z"/>
  </g>
  <g id="bullet-char-template-8211" transform="scale(0.00048828125,-0.00048828125)">
   <path d="M -4,459 L 1135,459 1135,606 -4,606 -4,459 Z"/>
  </g>
  <g id="bullet-char-template-61548" transform="scale(0.00048828125,-0.00048828125)">
   <path d="M 173,740 C 173,903 231,1043 346,1159 462,1274 601,1332 765,1332 928,1332 1067,1274 1183,1159 1299,1043 1357,903 1357,740 1357,577 1299,437 1183,322 1067,206 928,148 765,148 601,148 462,206 346,322 231,437 173,577 173,740 Z"/>
  </g>
 </defs>
 <g ooo:name="page1" class="Page">
  <g class="com.sun.star.drawing.CustomShape">
   <g id="id3">
    <rect class="BoundingBox" stroke="none" fill="none" x="28393" y="3243" width="3691" height="5840"/>
    <path fill="rgb(255,255,255)" stroke="none" d="M 28499,8397 L 28499,8396 C 28499,8498 28526,8598 28577,8686 28628,8774 28701,8847 28789,8898 28877,8949 28977,8976 29079,8976 L 31397,8976 31397,8976 C 31499,8976 31599,8949 31687,8898 31775,8847 31848,8774 31899,8686 31950,8598 31977,8498 31977,8396 L 31976,3930 31977,3930 C 31977,3828 31950,3728 31899,3640 31848,3552 31775,3479 31687,3428 31599,3377 31499,3350 31397,3350 L 29078,3351 29079,3350 29079,3350 C 28977,3350 28877,3377 28789,3428 28701,3479 28628,3552 28577,3640 28526,3728 28499,3828 28499,3930 L 28499,8397 Z"/>
    <path fill="none" stroke="rgb(255,255,255)" stroke-width="212" stroke-linejoin="round" d="M 28499,8397 L 28499,8396 C 28499,8498 28526,8598 28577,8686 28628,8774 28701,8847 28789,8898 28877,8949 28977,8976 29079,8976 L 31397,8976 31397,8976 C 31499,8976 31599,8949 31687,8898 31775,8847 31848,8774 31899,8686 31950,8598 31977,8498 31977,8396 L 31976,3930 31977,3930 C 31977,3828 31950,3728 31899,3640 31848,3552 31775,3479 31687,3428 31599,3377 31499,3350 31397,3350 L 29078,3351 29079,3350 29079,3350 C 28977,3350 28877,3377 28789,3428 28701,3479 28628,3552 28577,3640 28526,3728 28499,3828 28499,3930 L 28499,8397 Z"/>
   </g>
  </g>
  <g class="com.sun.star.drawing.CustomShape">
   <g id="id4">
    <rect class="BoundingBox" stroke="none" fill="none" x="28888" y="7866" width="2698" height="817"/>
    <path fill="rgb(255,56,56)" stroke="none" d="M 28994,8475 L 28994,8474 C 28994,8492 28999,8509 29007,8524 29016,8540 29029,8552 29044,8561 29059,8570 29077,8575 29094,8575 L 31377,8575 31378,8575 C 31395,8575 31413,8571 31428,8562 31443,8553 31456,8541 31465,8525 31473,8510 31478,8493 31478,8475 L 31478,8074 31478,8074 C 31478,8056 31473,8039 31465,8024 31456,8008 31443,7996 31428,7987 31413,7978 31395,7973 31378,7973 L 29094,7973 29094,7973 29094,7973 C 29077,7973 29059,7977 29044,7986 29029,7995 29016,8007 29007,8023 28999,8038 28994,8055 28994,8073 L 28994,8475 Z"/>
    <path fill="none" stroke="rgb(255,56,56)" stroke-width="212" stroke-linejoin="round" d="M 28994,8475 L 28994,8474 C 28994,8492 28999,8509 29007,8524 29016,8540 29029,8552 29044,8561 29059,8570 29077,8575 29094,8575 L 31377,8575 31378,8575 C 31395,8575 31413,8571 31428,8562 31443,8553 31456,8541 31465,8525 31473,8510 31478,8493 31478,8475 L 31478,8074 31478,8074 C 31478,8056 31473,8039 31465,8024 31456,8008 31443,7996 31428,7987 31413,7978 31395,7973 31378,7973 L 29094,7973 29094,7973 29094,7973 C 29077,7973 29059,7977 29044,7986 29029,7995 29016,8007 29007,8023 28999,8038 28994,8055 28994,8073 L 28994,8475 Z"/>
   </g>
  </g>
  <g class="com.sun.star.drawing.CustomShape">
   <g id="id5">
    <rect class="BoundingBox" stroke="none" fill="none" x="29413" y="2493" width="1691" height="840"/>
    <path fill="rgb(255,255,255)" stroke="none" d="M 29519,3122 L 29519,3122 C 29519,3140 29524,3158 29533,3174 29542,3190 29555,3203 29571,3212 29587,3221 29605,3226 29624,3226 L 30892,3226 30893,3226 C 30911,3226 30929,3221 30945,3212 30961,3203 30974,3190 30983,3174 30992,3158 30997,3140 30997,3122 L 30997,2704 30997,2704 C 30997,2685 30992,2667 30983,2651 30974,2635 30961,2622 30945,2613 30929,2604 30911,2599 30893,2599 L 29623,2599 29624,2599 29624,2599 C 29605,2599 29587,2604 29571,2613 29555,2622 29542,2635 29533,2651 29524,2667 29519,2685 29519,2704 L 29519,3122 Z"/>
    <path fill="none" stroke="rgb(255,255,255)" stroke-width="212" stroke-linejoin="round" d="M 29519,3122 L 29519,3122 C 29519,3140 29524,3158 29533,3174 29542,3190 29555,3203 29571,3212 29587,3221 29605,3226 29624,3226 L 30892,3226 30893,3226 C 30911,3226 30929,3221 30945,3212 30961,3203 30974,3190 30983,3174 30992,3158 30997,3140 30997,3122 L 30997,2704 30997,2704 C 30997,2685 30992,2667 30983,2651 30974,2635 30961,2622 30945,2613 30929,2604 30911,2599 30893,2599 L 29623,2599 29624,2599 29624,2599 C 29605,2599 29587,2604 29571,2613 29555,2622 29542,2635 29533,2651 29524,2667 29519,2685 29519,2704 L 29519,3122 Z"/>
   </g>
  </g>
 </g>
</svg>