<?xml version="1.0" encoding="UTF-8"?>
<!DOCTYPE svg PUBLIC "-//W3C//DTD SVG 1.1//EN" "http://www.w3.org/Graphics/SVG/1.1/DTD/svg11.dtd">
<svg version="1.2" viewBox="4393 2493 3691 6590" preserveAspectRatio="xMidYMid" fill-rule="evenodd" stroke-width="28.222" stroke-linejoin="round" xmlns="http://www.w3.org/2000/svg" xmlns:ooo="http://xml.openoffice.org/svg/export" xmlns:xlink="http://www.w3.org/1999/xlink" xmlns:presentation="http://sun.com/xmlns/staroffice/presentation" xmlns:smil="http://www.w3.org/2001/SMIL20/" xmlns:anim="urn:oasis:names:tc:opendocument:xmlns:animation:1.0" xmlns:svg="urn:oasis:names:tc:opendocument:xmlns:svg-compatible:1.0" xml:space="preserve">
 <defs class="EmbeddedBulletChars">
  <g id="bullet-char-template-57356" transform="scale(0.00048828125,-0.00048828125)">
   <path d="M 580,1141 L 1163,571 580,0 -4,571 580,1141 Z"/>
  </g>
  <g id="bullet-char-template-57354" transform="scale(0.00048828125,-0.00048828125)">
   <path d="M 8,1128 L 1137,1128 1137,0 8,0 8,1128 Z"/>
  </g>
  <g id="bullet-char-template-10146" transform="scale(0.00048828125,-0.00048828125)">
   <path d="M 174,0 L 602,739 174,1481 1456,739 174,0 Z M 1358,739 L 309,1346 659,739 1358,739 Z"/>
  </g>
  <g id="bullet-char-template-10132" transform="scale(0.00048828125,-0.00048828125)">
   <path d="M 2015,739 L 1276,0 717,0 1260,543 174,543 174,936 1260,936 717,1481 1274,1481 2015,739 Z"/>
  </g>
  <g id="bullet-char-template-10007" transform="scale(0.00048828125,-0.00048828125)">
   <path d="M 0,-2 C -7,14 -16,27 -25,37 L 356,567 C 262,823 215,952 215,954 215,979 228,992 255,992 264,992 276,990 289,987 310,991 331,999 354,1012 L 381,999 492,748 772,1049 836,1024 860,1049 C 881,1039 901,1025 922,1006 886,937 835,863 770,784 769,783 710,716 594,584 L 774,223 C 774,196 753,168 711,139 L 727,119 C 717,90 699,76 672,76 641,76 570,178 457,381 L 164,-76 C 142,-110 111,-127 72,-127 30,-127 9,-110 8,-76 1,-67 -2,-52 -2,-32 -2,-23 -1,-13 0,-2 Z"/>
  </g>
  <g id="bullet-char-template-10004" transform="scale(0.00048828125,-0.00048828125)">
   <path d="M 285,-33 C 182,-33 111,30 74,156 52,228 41,333 41,471 41,549 55,616 82,672 116,743 169,778 240,778 293,778 328,747 346,684 L 369,508 C 377,444 397,411 428,410 L 1163,1116 C 1174,1127 1196,1133 1229,1133 1271,1133 1292,1118 1292,1087 L 1292,965 C 1292,929 1282,901 1262,881 L 442,47 C 390,-6 338,-33 285,-33 Z"/>
  </g>
  <g id="bullet-char-template-9679" transform="scale(0.00048828125,-0.00048828125)">
   <path d="M 813,0 C 632,0 489,54 383,161 276,268 223,411 223,592 223,773 276,916 383,1023 489,1130 632,1184 813,1184 992,1184 1136,1130 1245,1023 1353,916 1407,772 1407,592 1407,412 1353,268 1245,161 1136,54 992,0 813,0 Z"/>
  </g>
  <g id="bullet-char-template-8226" transform="scale(0.00048828125,-0.00048828125)">
   <path d="M 346,457 C 273,457 209,483 155,535 101,586 74,649 74,723 74,796 101,859 155,911 209,963 273,989 346,989 419,989 480,963 531,910 582,859 608,796 608,723 608,648 583,586 532,535 482,483 420,457 346,457 Z"/>
  </g>
  <g id="bullet-char-template-8211" transform="scale(0.00048828125,-0.00048828125)">
   <path d="M -4,459 L 1135,459 1135,606 -4,606 -4,459 Z"/>
  </g>
  <g id="bullet-char-template-61548" transform="scale(0.00048828125,-0.00048828125)">
   <path d="M 173,740 C 173,903 231,1043 346,1159 462,1274 601,1332 765,1332 928,1332 1067,1274 1183,1159 1299,1043 1357,903 1357,740 1357,577 1299,437 1183,322 1067,206 928,148 765,148 601,148 462,206 346,322 231,437 173,577 173,740 Z"/>
  </g>
 </defs>
 <g ooo:name="page1" class="Page">
  <g class="com.sun.star.drawing.CustomShape">
   <g id="id3">
    <rect class="BoundingBox" stroke="none" fill="none" x="4393" y="3243" width="3691" height="5840"/>
    <path fill="rgb(255,255,255)" stroke="none" d="M 4499,8397 L 4499,8396 C 4499,8498 4526,8598 4577,8686 4628,8774 4701,8847 4789,8898 4877,8949 4977,8976 5079,8976 L 7397,8976 7397,8976 C 7499,8976 7599,8949 7687,8898 7775,8847 7848,8774 7899,8686 7950,8598 7977,8498 7977,8396 L 7976,3929 7977,3929 C 7977,3827 7950,3727 7899,3639 7848,3551 7775,3478 7687,3427 7599,3376 7499,3349 7397,3349 L 5078,3349 5079,3349 5079,3349 C 4977,3349 4877,3376 4789,3427 4701,3478 4628,3551 4577,3639 4526,3727 4499,3827 4499,3929 L 4499,8397 Z"/>
    <path fill="none" stroke="rgb(255,255,255)" stroke-width="212" stroke-linejoin="round" d="M 4499,8397 L 4499,8396 C 4499,8498 4526,8598 4577,8686 4628,8774 4701,8847 4789,8898 4877,8949 4977,8976 5079,8976 L 7397,8976 7397,8976 C 7499,8976 7599,8949 7687,8898 7775,8847 7848,8774 7899,8686 7950,8598 7977,8498 7977,8396 L 7976,3929 7977,3929 C 7977,3827 7950,3727 7899,3639 7848,3551 7775,3478 7687,3427 7599,3376 7499,3349 7397,3349 L 5078,3349 5079,3349 5079,3349 C 4977,3349 4877,3376 4789,3427 4701,3478 4628,3551 4577,3639 4526,3727 4499,3827 4499,3929 L 4499,8397 Z"/>
   </g>
  </g>
  <g class="com.sun.star.drawing.CustomShape">
   <g id="id4">
    <rect class="BoundingBox" stroke="none" fill="none" x="4892" y="4250" width="2698" height="4429"/>
    <path fill="rgb(129,212,26)" stroke="none" d="M 4998,8146 L 4998,8146 C 4998,8219 5017,8290 5053,8353 5090,8416 5142,8469 5205,8506 5268,8542 5339,8562 5412,8562 L 7068,8572 7069,8572 C 7142,8572 7213,8553 7276,8517 7339,8481 7391,8429 7428,8367 7464,8304 7483,8232 7483,8160 L 7483,4783 7483,4782 C 7483,4709 7464,4638 7428,4575 7391,4512 7339,4459 7276,4422 7213,4386 7142,4366 7069,4366 L 5412,4356 5412,4356 5412,4356 C 5339,4356 5268,4375 5205,4411 5142,4447 5090,4499 5053,4561 5017,4624 4998,4696 4998,4768 L 4998,8146 Z"/>
    <path fill="none" stroke="rgb(129,212,26)" stroke-width="212" stroke-linejoin="round" d="M 4998,8146 L 4998,8146 C 4998,8219 5017,8290 5053,8353 5090,8416 5142,8469 5205,8506 5268,8542 5339,8562 5412,8562 L 7068,8572 7069,8572 C 7142,8572 7213,8553 7276,8517 7339,8481 7391,8429 7428,8367 7464,8304 7483,8232 7483,8160 L 7483,4783 7483,4782 C 7483,4709 7464,4638 7428,4575 7391,4512 7339,4459 7276,4422 7213,4386 7142,4366 7069,4366 L 5412,4356 5412,4356 5412,4356 C 5339,4356 5268,4375 5205,4411 5142,4447 5090,4499 5053,4561 5017,4624 4998,4696 4998,4768 L 4998,8146 Z"/>
   </g>
  </g>
  <g class="com.sun.star.drawing.CustomShape">
   <g id="id5">
    <rect class="BoundingBox" stroke="none" fill="none" x="5416" y="2493" width="1691" height="840"/>
    <path fill="rgb(255,255,255)" stroke="none" d="M 5522,3122 L 5522,3122 C 5522,3140 5527,3158 5536,3174 5545,3190 5558,3203 5574,3212 5590,3221 5608,3226 5627,3226 L 6895,3226 6896,3226 C 6914,3226 6932,3221 6948,3212 6964,3203 6977,3190 6986,3174 6995,3158 7000,3140 7000,3122 L 7000,2704 7000,2704 C 7000,2685 6995,2667 6986,2651 6977,2635 6964,2622 6948,2613 6932,2604 6914,2599 6896,2599 L 5626,2599 5627,2599 5627,2599 C 5608,2599 5590,2604 5574,2613 5558,2622 5545,2635 5536,2651 5527,2667 5522,2685 5522,2704 L 5522,3122 Z"/>
    <path fill="none" stroke="rgb(255,255,255)" stroke-width="212" stroke-linejoin="round" d="M 5522,3122 L 5522,3122 C 5522,3140 5527,3158 5536,3174 5545,3190 5558,3203 5574,3212 5590,3221 5608,3226 5627,3226 L 6895,3226 6896,3226 C 6914,3226 6932,3221 6948,3212 6964,3203 6977,3190 6986,3174 6995,3158 7000,3140 7000,3122 L 7000,2704 7000,2704 C 7000,2685 6995,2667 6986,2651 6977,2635 6964,2622 6948,2613 6932,2604 6914,2599 6896,2599 L 5626,2599 5627,2599 5627,2599 C 5608,2599 5590,2604 5574,2613 5558,2622 5545,2635 5536,2651 5527,2667 5522,2685 5522,2704 L 5522,3122 Z"/>
   </g>
  </g>
  <g class="com.sun.star.drawing.CustomShape">
   <g id="id6">
    <rect class="BoundingBox" stroke="none" fill="none" x="5416" y="2493" width="1691" height="840"/>
    <path fill="rgb(255,255,255)" stroke="none" d="M 5522,3122 L 5522,3122 C 5522,3140 5527,3158 5536,3174 5545,3190 5558,3203 5574,3212 5590,3221 5608,3226 5627,3226 L 6895,3226 6896,3226 C 6914,3226 6932,3221 6948,3212 6964,3203 6977,3190 6986,3174 6995,3158 7000,3140 7000,3122 L 7000,2704 7000,2704 C 7000,2685 6995,2667 6986,2651 6977,2635 6964,2622 6948,2613 6932,2604 6914,2599 6896,2599 L 5626,2599 5627,2599 5627,2599 C 5608,2599 5590,2604 5574,2613 5558,2622 5545,2635 5536,2651 5527,2667 5522,2685 5522,2704 L 5522,3122 Z"/>
    <path fill="none" stroke="rgb(255,255,255)" stroke-width="212" stroke-linejoin="round" d="M 5522,3122 L 5522,3122 C 5522,3140 5527,3158 5536,3174 5545,3190 5558,3203 5574,3212 5590,3221 5608,3226 5627,3226 L 6895,3226 6896,3226 C 6914,3226 6932,3221 6948,3212 6964,3203 6977,3190 6986,3174 6995,3158 7000,3140 7000,3122 L 7000,2704 7000,2704 C 7000,2685 6995,2667 6986,2651 6977,2635 6964,2622 6948,2613 6932,2604 6914,2599 6896,2599 L 5626,2599 5627,2599 5627,2599 C 5608,2599 5590,2604 5574,2613 5558,2622 5545,2635 5536,2651 5527,2667 5522,2685 5522,2704 L 5522,3122 Z"/>
   </g>
  </g>
 </g>
</svg>