<?xml version="1.0" encoding="UTF-8"?>
<!DOCTYPE svg PUBLIC "-//W3C//DTD SVG 1.1//EN" "http://www.w3.org/Graphics/SVG/1.1/DTD/svg11.dtd">
<svg version="1.2" viewBox="24393 2493 3691 6589" preserveAspectRatio="xMidYMid" fill-rule="evenodd" stroke-width="28.222" stroke-linejoin="round" xmlns="http://www.w3.org/2000/svg" xmlns:ooo="http://xml.openoffice.org/svg/export" xmlns:xlink="http://www.w3.org/1999/xlink" xmlns:presentation="http://sun.com/xmlns/staroffice/presentation" xmlns:smil="http://www.w3.org/2001/SMIL20/" xmlns:anim="urn:oasis:names:tc:opendocument:xmlns:animation:1.0" xmlns:svg="urn:oasis:names:tc:opendocument:xmlns:svg-compatible:1.0" xml:space="preserve">
 <defs class="EmbeddedBulletChars">
  <g id="bullet-char-template-57356" transform="scale(0.00048828125,-0.00048828125)">
   <path d="M 580,1141 L 1163,571 580,0 -4,571 580,1141 Z"/>
  </g>
  <g id="bullet-char-template-57354" transform="scale(0.00048828125,-0.00048828125)">
   <path d="M 8,1128 L 1137,1128 1137,0 8,0 8,1128 Z"/>
  </g>
  <g id="bullet-char-template-10146" transform="scale(0.00048828125,-0.00048828125)">
   <path d="M 174,0 L 602,739 174,1481 1456,739 174,0 Z M 1358,739 L 309,1346 659,739 1358,739 Z"/>
  </g>
  <g id="bullet-char-template-10132" transform="scale(0.00048828125,-0.00048828125)">
   <path d="M 2015,739 L 1276,0 717,0 1260,543 174,543 174,936 1260,936 717,1481 1274,1481 2015,739 Z"/>
  </g>
  <g id="bullet-char-template-10007" transform="scale(0.00048828125,-0.00048828125)">
   <path d="M 0,-2 C -7,14 -16,27 -25,37 L 356,567 C 262,823 215,952 215,954 215,979 228,992 255,992 264,992 276,990 289,987 310,991 331,999 354,1012 L 381,999 492,748 772,1049 836,1024 860,1049 C 881,1039 901,1025 922,1006 886,937 835,863 770,784 769,783 710,716 594,584 L 774,223 C 774,196 753,168 711,139 L 727,119 C 717,90 699,76 672,76 641,76 570,178 457,381 L 164,-76 C 142,-110 111,-127 72,-127 30,-127 9,-110 8,-76 1,-67 -2,-52 -2,-32 -2,-23 -1,-13 0,-2 Z"/>
  </g>
  <g id="bullet-char-template-10004" transform="scale(0.00048828125,-0.00048828125)">
   <path d="M 285,-33 C 182,-33 111,30 74,156 52,228 41,333 41,471 41,549 55,616 82,672 116,743 169,778 240,778 293,778 328,747 346,684 L 369,508 C 377,444 397,411 428,410 L 1163,1116 C 1174,1127 1196,1133 1229,1133 1271,1133 1292,1118 1292,1087 L 1292,965 C 1292,929 1282,901 1262,881 L 442,47 C 390,-6 338,-33 285,-33 Z"/>
  </g>
  <g id="bullet-char-template-9679" transform="scale(0.00048828125,-0.00048828125)">
   <path d="M 813,0 C 632,0 489,54 383,161 276,268 223,411 223,592 223,773 276,916 383,1023 489,1130 632,1184 813,1184 992,1184 1136,1130 1245,1023 1353,916 1407,772 1407,592 1407,412 1353,268 1245,161 1136,54 992,0 813,0 Z"/>
  </g>
  <g id="bullet-char-template-8226" transform="scale(0.00048828125,-0.00048828125)">
   <path d="M 346,457 C 273,457 209,483 155,535 101,586 74,649 74,723 74,796 101,859 155,911 209,963 273,989 346,989 419,989 480,963 531,910 582,859 608,796 608,723 608,648 583,586 532,535 482,483 420,457 346,457 Z"/>
  </g>
  <g id="bullet-char-template-8211" transform="scale(0.00048828125,-0.00048828125)">
   <path d="M -4,459 L 1135,459 1135,606 -4,606 -4,459 Z"/>
  </g>
  <g id="bullet-char-template-61548" transform="scale(0.00048828125,-0.00048828125)">
   <path d="M 173,740 C 173,903 231,1043 346,1159 462,1274 601,1332 765,1332 928,1332 1067,1274 1183,1159 1299,1043 1357,903 1357,740 1357,577 1299,437 1183,322 1067,206 928,148 765,148 601,148 462,206 346,322 231,437 173,577 173,740 Z"/>
  </g>
 </defs>
 <g ooo:name="page1" class="Page">
  <g class="com.sun.star.drawing.CustomShape">
   <g id="id3">
    <rect class="BoundingBox" stroke="none" fill="none" x="24393" y="3243" width="3691" height="5839"/>
    <path fill="rgb(255,255,255)" stroke="none" d="M 24499,8396 L 24499,8395 C 24499,8497 24526,8597 24577,8685 24628,8773 24701,8846 24789,8897 24877,8948 24977,8975 25079,8975 L 27397,8975 27397,8975 C 27499,8975 27599,8948 27687,8897 27775,8846 27848,8773 27899,8685 27950,8597 27977,8497 27977,8395 L 27976,3929 27977,3929 C 27977,3827 27950,3727 27899,3639 27848,3551 27775,3478 27687,3427 27599,3376 27499,3349 27397,3349 L 25078,3350 25079,3349 25079,3349 C 24977,3349 24877,3376 24789,3427 24701,3478 24628,3551 24577,3639 24526,3727 24499,3827 24499,3929 L 24499,8396 Z"/>
    <path fill="none" stroke="rgb(255,255,255)" stroke-width="212" stroke-linejoin="round" d="M 24499,8396 L 24499,8395 C 24499,8497 24526,8597 24577,8685 24628,8773 24701,8846 24789,8897 24877,8948 24977,8975 25079,8975 L 27397,8975 27397,8975 C 27499,8975 27599,8948 27687,8897 27775,8846 27848,8773 27899,8685 27950,8597 27977,8497 27977,8395 L 27976,3929 27977,3929 C 27977,3827 27950,3727 27899,3639 27848,3551 27775,3478 27687,3427 27599,3376 27499,3349 27397,3349 L 25078,3350 25079,3349 25079,3349 C 24977,3349 24877,3376 24789,3427 24701,3478 24628,3551 24577,3639 24526,3727 24499,3827 24499,3929 L 24499,8396 Z"/>
   </g>
  </g>
  <g class="com.sun.star.drawing.CustomShape">
   <g id="id4">
    <rect class="BoundingBox" stroke="none" fill="none" x="24893" y="7261" width="2698" height="1420"/>
    <path fill="rgb(255,134,13)" stroke="none" d="M 24999,8370 L 24999,8370 C 24999,8405 25008,8439 25026,8470 25043,8500 25069,8526 25099,8543 25130,8561 25164,8570 25199,8570 L 27283,8574 27284,8574 C 27319,8574 27353,8564 27384,8547 27414,8529 27440,8504 27457,8474 27475,8443 27484,8409 27484,8373 L 27484,7572 27484,7571 C 27484,7536 27475,7502 27457,7471 27440,7441 27414,7415 27384,7398 27353,7380 27319,7371 27284,7371 L 25199,7367 25199,7367 25199,7367 C 25164,7367 25130,7377 25099,7394 25069,7412 25043,7437 25026,7467 25008,7498 24999,7532 24999,7568 L 24999,8370 Z"/>
    <path fill="none" stroke="rgb(255,134,13)" stroke-width="212" stroke-linejoin="round" d="M 24999,8370 L 24999,8370 C 24999,8405 25008,8439 25026,8470 25043,8500 25069,8526 25099,8543 25130,8561 25164,8570 25199,8570 L 27283,8574 27284,8574 C 27319,8574 27353,8564 27384,8547 27414,8529 27440,8504 27457,8474 27475,8443 27484,8409 27484,8373 L 27484,7572 27484,7571 C 27484,7536 27475,7502 27457,7471 27440,7441 27414,7415 27384,7398 27353,7380 27319,7371 27284,7371 L 25199,7367 25199,7367 25199,7367 C 25164,7367 25130,7377 25099,7394 25069,7412 25043,7437 25026,7467 25008,7498 24999,7532 24999,7568 L 24999,8370 Z"/>
   </g>
  </g>
  <g class="com.sun.star.drawing.CustomShape">
   <g id="id5">
    <rect class="BoundingBox" stroke="none" fill="none" x="25412" y="2493" width="1692" height="840"/>
    <path fill="rgb(255,255,255)" stroke="none" d="M 25519,3122 L 25519,3122 C 25519,3140 25524,3158 25533,3174 25542,3190 25555,3203 25571,3212 25587,3221 25605,3226 25624,3226 L 26892,3226 26892,3226 C 26911,3226 26929,3221 26945,3212 26961,3203 26974,3190 26983,3174 26992,3158 26997,3140 26997,3122 L 26997,2704 26997,2704 C 26997,2685 26992,2667 26983,2651 26974,2635 26961,2622 26945,2613 26929,2604 26911,2599 26892,2599 L 25623,2599 25624,2599 25624,2599 C 25605,2599 25587,2604 25571,2613 25555,2622 25542,2635 25533,2651 25524,2667 25519,2685 25519,2704 L 25519,3122 Z"/>
    <path fill="none" stroke="rgb(255,255,255)" stroke-width="212" stroke-linejoin="round" d="M 25519,3122 L 25519,3122 C 25519,3140 25524,3158 25533,3174 25542,3190 25555,3203 25571,3212 25587,3221 25605,3226 25624,3226 L 26892,3226 26892,3226 C 26911,3226 26929,3221 26945,3212 26961,3203 26974,3190 26983,3174 26992,3158 26997,3140 26997,3122 L 26997,2704 26997,2704 C 26997,2685 26992,2667 26983,2651 26974,2635 26961,2622 26945,2613 26929,2604 26911,2599 26892,2599 L 25623,2599 25624,2599 25624,2599 C 25605,2599 25587,2604 25571,2613 25555,2622 25542,2635 25533,2651 25524,2667 25519,2685 25519,2704 L 25519,3122 Z"/>
   </g>
  </g>
 </g>
</svg>